<mxfile host="app.diagrams.net" modified="2021-05-18T08:02:29.191Z" agent="5.0 (Macintosh; Intel Mac OS X 10_15_7) AppleWebKit/537.36 (KHTML, like Gecko) Chrome/90.0.4430.212 Safari/537.36" etag="5chD6s-L982AYEVd3_kF" version="14.6.13" type="github">
  <diagram id="iAmz55IbFQ7wQcQpy8VD" name="Page-1">
    <mxGraphModel dx="1298" dy="841" grid="1" gridSize="10" guides="1" tooltips="1" connect="1" arrows="1" fold="1" page="1" pageScale="1" pageWidth="827" pageHeight="1169" math="0" shadow="0">
      <root>
        <mxCell id="0" />
        <mxCell id="1" parent="0" />
        <mxCell id="KB86THVsQe5Ga0yVeqtq-5" style="edgeStyle=orthogonalEdgeStyle;rounded=0;orthogonalLoop=1;jettySize=auto;html=1;entryX=0;entryY=0.5;entryDx=0;entryDy=0;" edge="1" parent="1" source="KB86THVsQe5Ga0yVeqtq-3" target="KB86THVsQe5Ga0yVeqtq-4">
          <mxGeometry relative="1" as="geometry" />
        </mxCell>
        <mxCell id="KB86THVsQe5Ga0yVeqtq-3" value="" style="ellipse;whiteSpace=wrap;html=1;" vertex="1" parent="1">
          <mxGeometry x="222" y="120" width="120" height="180" as="geometry" />
        </mxCell>
        <mxCell id="KB86THVsQe5Ga0yVeqtq-4" value="" style="ellipse;whiteSpace=wrap;html=1;" vertex="1" parent="1">
          <mxGeometry x="486" y="120" width="120" height="180" as="geometry" />
        </mxCell>
        <mxCell id="KB86THVsQe5Ga0yVeqtq-6" value="y" style="text;html=1;strokeColor=none;fillColor=none;align=center;verticalAlign=middle;whiteSpace=wrap;rounded=0;" vertex="1" parent="1">
          <mxGeometry x="526" y="90" width="40" height="20" as="geometry" />
        </mxCell>
        <mxCell id="KB86THVsQe5Ga0yVeqtq-7" value="x" style="text;html=1;strokeColor=none;fillColor=none;align=center;verticalAlign=middle;whiteSpace=wrap;rounded=0;" vertex="1" parent="1">
          <mxGeometry x="262" y="90" width="40" height="20" as="geometry" />
        </mxCell>
      </root>
    </mxGraphModel>
  </diagram>
</mxfile>
